<svg width="169" height="82" viewBox="0 0 169 82" fill="none" xmlns="http://www.w3.org/2000/svg">
<path d="M65.2648 31.574C64.4588 32.25 63.4318 32.757 62.1838 33.095C60.9358 33.459 59.4668 33.641 57.7768 33.641H44.6338C44.0098 33.641 43.5548 33.498 43.2688 33.212C42.9828 32.926 42.8398 32.471 42.8398 31.847V6.575C42.8398 6.237 42.8788 5.951 42.9568 5.717C43.0608 5.483 43.2038 5.288 43.3858 5.132L48.4168 0.880999C48.5468 0.776999 48.7158 0.698999 48.9238 0.646998C49.1578 0.568999 49.4048 0.529999 49.6648 0.529999H62.8078C66.2138 0.529999 68.7228 1.219 70.3348 2.597C71.9728 3.975 72.7918 6.068 72.7918 8.876V21.044C72.7918 22.448 72.5838 23.683 72.1678 24.749C71.7518 25.789 71.1408 26.66 70.3348 27.362L65.2648 31.574ZM62.8078 29C66.0578 29 68.4628 28.35 70.0228 27.05C71.6088 25.75 72.4018 23.748 72.4018 21.044V8.876C72.4018 6.172 71.6088 4.17 70.0228 2.87C68.4628 1.57 66.0578 0.919999 62.8078 0.919999H49.6648C49.1708 0.919999 48.8068 1.037 48.5728 1.271C48.3648 1.479 48.2608 1.83 48.2608 2.324V27.596C48.2608 28.09 48.3648 28.454 48.5728 28.688C48.8068 28.896 49.1708 29 49.6648 29H62.8078ZM52.5118 25.49V4.43H61.9498C63.2758 4.43 64.3418 4.573 65.1478 4.859C65.9798 5.145 66.6168 5.535 67.0588 6.029C67.5008 6.497 67.7998 7.069 67.9558 7.745C68.1118 8.395 68.1898 9.097 68.1898 9.851V20.186C68.1898 20.94 68.1118 21.642 67.9558 22.292C67.8258 22.942 67.5398 23.501 67.0978 23.969C66.6558 24.437 66.0188 24.814 65.1868 25.1C64.3548 25.36 63.2758 25.49 61.9498 25.49H52.5118ZM61.9498 4.82H52.9018V25.1H61.9498C63.1978 25.1 64.1988 24.983 64.9528 24.749C65.7328 24.489 66.3308 24.151 66.7468 23.735C67.1628 23.293 67.4358 22.773 67.5658 22.175C67.7218 21.551 67.7998 20.888 67.7998 20.186V9.851C67.7998 9.149 67.7218 8.486 67.5658 7.862C67.4098 7.238 67.1238 6.705 66.7078 6.263C66.2918 5.821 65.6938 5.47 64.9138 5.21C64.1598 4.95 63.1718 4.82 61.9498 4.82ZM57.1138 8.369H61.7548C62.3788 8.369 62.8338 8.525 63.1198 8.837C63.4318 9.123 63.5878 9.591 63.5878 10.241V19.718C63.5878 20.368 63.4318 20.849 63.1198 21.161C62.8338 21.473 62.3788 21.629 61.7548 21.629H57.1138V8.369ZM58.1668 14.492C58.1668 14.154 58.1148 13.868 58.0108 13.634C57.9068 13.4 57.7378 13.231 57.5038 13.127V21.239H58.1668V14.492ZM91.6562 33.641H75.0422C74.4182 33.641 73.9632 33.498 73.6772 33.212C73.3912 32.926 73.2482 32.471 73.2482 31.847V27.206C73.2482 26.868 73.2872 26.582 73.3652 26.348C73.4692 26.114 73.6122 25.919 73.7942 25.763L78.5132 21.785V13.088H75.0422C74.4182 13.088 73.9632 12.945 73.6772 12.659C73.3912 12.373 73.2482 11.918 73.2482 11.294V6.575C73.2482 6.237 73.2872 5.951 73.3652 5.717C73.4692 5.483 73.6122 5.288 73.7942 5.132L78.8252 0.880999C78.9552 0.776999 79.1242 0.698999 79.3322 0.646998C79.5662 0.568999 79.8132 0.529999 80.0732 0.529999H96.6872C97.3112 0.529999 97.7662 0.672999 98.0522 0.958998C98.3382 1.245 98.4812 1.7 98.4812 2.324V7.043C98.4812 7.381 98.4292 7.667 98.3252 7.901C98.2472 8.135 98.1172 8.33 97.9352 8.486L93.2942 12.386V21.161H96.6872C97.3112 21.161 97.7662 21.304 98.0522 21.59C98.3382 21.876 98.4812 22.331 98.4812 22.955V27.596C98.4812 27.934 98.4292 28.22 98.3252 28.454C98.2472 28.688 98.1172 28.883 97.9352 29.039L92.8652 33.251C92.7612 33.355 92.5922 33.446 92.3582 33.524C92.1502 33.602 91.9162 33.641 91.6562 33.641ZM80.0732 29H96.6872C97.1812 29 97.5322 28.896 97.7402 28.688C97.9742 28.454 98.0912 28.09 98.0912 27.596V22.955C98.0912 22.461 97.9742 22.11 97.7402 21.902C97.5322 21.668 97.1812 21.551 96.6872 21.551H92.9042V8.447H96.6872C97.1812 8.447 97.5322 8.343 97.7402 8.135C97.9742 7.901 98.0912 7.537 98.0912 7.043V2.324C98.0912 1.83 97.9742 1.479 97.7402 1.271C97.5322 1.037 97.1812 0.919999 96.6872 0.919999H80.0732C79.5792 0.919999 79.2152 1.037 78.9812 1.271C78.7732 1.479 78.6692 1.83 78.6692 2.324V7.043C78.6692 7.537 78.7732 7.901 78.9812 8.135C79.2152 8.343 79.5792 8.447 80.0732 8.447H83.9342V21.551H80.0732C79.5792 21.551 79.2152 21.668 78.9812 21.902C78.7732 22.11 78.6692 22.461 78.6692 22.955V27.596C78.6692 28.09 78.7732 28.454 78.9812 28.688C79.2152 28.896 79.5792 29 80.0732 29ZM94.5812 25.49H82.1792V25.1H88.2242V4.82H82.1792V4.43H94.5812V4.82H88.6142V25.1H94.5812V25.49ZM100.512 33.641C99.8882 33.641 99.4332 33.498 99.1472 33.212C98.8612 32.926 98.7182 32.471 98.7182 31.847V27.284C98.7182 26.946 98.7572 26.66 98.8352 26.426C98.9392 26.192 99.0822 25.997 99.2642 25.841L103.164 22.565C101.786 22.149 100.694 21.447 99.8882 20.459C99.1082 19.445 98.7182 18.002 98.7182 16.13V12.035C98.7182 10.865 98.9132 9.825 99.3032 8.915C99.6932 8.005 100.252 7.238 100.98 6.614L106.05 2.363C106.752 1.791 107.623 1.349 108.663 1.037C109.703 0.698999 110.886 0.529999 112.212 0.529999H123.132C123.756 0.529999 124.211 0.672999 124.497 0.958998C124.783 1.245 124.926 1.7 124.926 2.324V6.965C124.926 7.303 124.874 7.589 124.77 7.823C124.692 8.057 124.562 8.252 124.38 8.408L120.87 11.333C122.508 11.697 123.821 12.386 124.809 13.4C125.823 14.388 126.33 15.935 126.33 18.041V22.136C126.33 23.306 126.135 24.346 125.745 25.256C125.355 26.166 124.783 26.933 124.029 27.557L118.998 31.769C118.27 32.367 117.386 32.822 116.346 33.134C115.306 33.472 114.136 33.641 112.836 33.641H100.512ZM117.867 29C120.363 29 122.326 28.415 123.756 27.245C125.212 26.049 125.94 24.346 125.94 22.136V18.041C125.94 15.857 125.381 14.297 124.263 13.361C123.145 12.425 121.676 11.827 119.856 11.567L114.045 10.787C113.707 10.761 113.447 10.631 113.265 10.397C113.083 10.163 112.992 9.877 112.992 9.539C112.992 9.201 113.083 8.928 113.265 8.72C113.447 8.486 113.707 8.369 114.045 8.369H123.132C123.626 8.369 123.977 8.265 124.185 8.057C124.419 7.823 124.536 7.459 124.536 6.965V2.324C124.536 1.83 124.419 1.479 124.185 1.271C123.977 1.037 123.626 0.919999 123.132 0.919999H112.212C109.69 0.919999 107.714 1.518 106.284 2.714C104.854 3.884 104.139 5.574 104.139 7.784V11.879C104.139 14.063 104.685 15.623 105.777 16.559C106.895 17.495 108.364 18.093 110.184 18.353L116.034 19.172C116.372 19.198 116.619 19.315 116.775 19.523C116.957 19.731 117.048 20.056 117.048 20.498C117.048 20.81 116.957 21.083 116.775 21.317C116.619 21.525 116.372 21.629 116.034 21.629H105.543C105.049 21.629 104.685 21.746 104.451 21.98C104.243 22.188 104.139 22.539 104.139 23.033V27.596C104.139 28.09 104.243 28.454 104.451 28.688C104.685 28.896 105.049 29 105.543 29H117.867ZM121.026 4.43V4.82H112.368C111.276 4.82 110.405 5.119 109.755 5.717C109.105 6.315 108.78 7.069 108.78 7.979V11.177C108.78 12.087 108.962 12.724 109.326 13.088C109.69 13.452 110.171 13.686 110.769 13.79L118.998 15.467C119.778 15.623 120.415 15.961 120.909 16.481C121.429 17.001 121.689 17.937 121.689 19.289V21.551C121.689 22.695 121.299 23.644 120.519 24.398C119.739 25.126 118.686 25.49 117.36 25.49H107.649V25.1H117.36C118.556 25.1 119.505 24.775 120.207 24.125C120.935 23.449 121.299 22.591 121.299 21.551V19.289C121.299 18.067 121.078 17.235 120.636 16.793C120.22 16.325 119.648 16.013 118.92 15.857L110.691 14.18C110.015 14.05 109.456 13.79 109.014 13.4C108.598 12.984 108.39 12.243 108.39 11.177V7.979C108.39 6.939 108.754 6.094 109.482 5.444C110.21 4.768 111.172 4.43 112.368 4.43H121.026ZM8.35767 80.641H2.31267C1.68867 80.641 1.23367 80.498 0.947672 80.212C0.661672 79.926 0.518672 79.471 0.518672 78.847V53.575C0.518672 53.237 0.557672 52.951 0.635672 52.717C0.739672 52.483 0.882672 52.288 1.06467 52.132L6.09567 47.881C6.22567 47.777 6.39467 47.699 6.60267 47.647C6.83667 47.569 7.08367 47.53 7.34367 47.53H24.7377C25.3617 47.53 25.8167 47.673 26.1027 47.959C26.3887 48.245 26.5317 48.7 26.5317 49.324V53.965C26.5317 54.303 26.4797 54.589 26.3757 54.823C26.2977 55.057 26.1677 55.252 25.9857 55.408L21.6177 59.035C22.2157 59.035 22.6577 59.178 22.9437 59.464C23.2297 59.75 23.3727 60.205 23.3727 60.829V65.509C23.3727 65.847 23.3207 66.133 23.2167 66.367C23.1387 66.601 23.0087 66.796 22.8267 66.952L17.7567 71.164C17.6527 71.268 17.4837 71.359 17.2497 71.437C17.0417 71.515 16.8077 71.554 16.5477 71.554H15.1827V74.596C15.1827 74.934 15.1307 75.22 15.0267 75.454C14.9487 75.688 14.8187 75.883 14.6367 76.039L9.56667 80.251C9.46267 80.355 9.29367 80.446 9.05967 80.524C8.85167 80.602 8.61767 80.641 8.35767 80.641ZM13.3887 76C13.8827 76 14.2337 75.896 14.4417 75.688C14.6757 75.454 14.7927 75.09 14.7927 74.596V66.913H21.5787C22.0727 66.913 22.4237 66.809 22.6317 66.601C22.8657 66.367 22.9827 66.003 22.9827 65.509V60.829C22.9827 60.335 22.8657 59.984 22.6317 59.776C22.4237 59.542 22.0727 59.425 21.5787 59.425H14.7927V55.369H24.7377C25.2317 55.369 25.5827 55.265 25.7907 55.057C26.0247 54.823 26.1417 54.459 26.1417 53.965V49.324C26.1417 48.83 26.0247 48.479 25.7907 48.271C25.5827 48.037 25.2317 47.92 24.7377 47.92H7.34367C6.84967 47.92 6.48567 48.037 6.25167 48.271C6.04367 48.479 5.93967 48.83 5.93967 49.324V74.596C5.93967 75.09 6.04367 75.454 6.25167 75.688C6.48567 75.896 6.84967 76 7.34367 76H13.3887ZM10.1907 72.49V51.43H22.6317V51.82H10.5807V62.974H19.4727V63.364H10.5807V72.49H10.1907ZM44.3458 80.641H27.7318C27.1078 80.641 26.6528 80.498 26.3668 80.212C26.0808 79.926 25.9378 79.471 25.9378 78.847V74.206C25.9378 73.868 25.9768 73.582 26.0548 73.348C26.1588 73.114 26.3018 72.919 26.4838 72.763L31.2028 68.785V60.088H27.7318C27.1078 60.088 26.6528 59.945 26.3668 59.659C26.0808 59.373 25.9378 58.918 25.9378 58.294V53.575C25.9378 53.237 25.9768 52.951 26.0548 52.717C26.1588 52.483 26.3018 52.288 26.4838 52.132L31.5148 47.881C31.6448 47.777 31.8138 47.699 32.0218 47.647C32.2558 47.569 32.5028 47.53 32.7628 47.53H49.3768C50.0008 47.53 50.4558 47.673 50.7418 47.959C51.0278 48.245 51.1708 48.7 51.1708 49.324V54.043C51.1708 54.381 51.1188 54.667 51.0148 54.901C50.9368 55.135 50.8068 55.33 50.6248 55.486L45.9838 59.386V68.161H49.3768C50.0008 68.161 50.4558 68.304 50.7418 68.59C51.0278 68.876 51.1708 69.331 51.1708 69.955V74.596C51.1708 74.934 51.1188 75.22 51.0148 75.454C50.9368 75.688 50.8068 75.883 50.6248 76.039L45.5548 80.251C45.4508 80.355 45.2818 80.446 45.0478 80.524C44.8398 80.602 44.6058 80.641 44.3458 80.641ZM32.7628 76H49.3768C49.8708 76 50.2218 75.896 50.4298 75.688C50.6638 75.454 50.7808 75.09 50.7808 74.596V69.955C50.7808 69.461 50.6638 69.11 50.4298 68.902C50.2218 68.668 49.8708 68.551 49.3768 68.551H45.5938V55.447H49.3768C49.8708 55.447 50.2218 55.343 50.4298 55.135C50.6638 54.901 50.7808 54.537 50.7808 54.043V49.324C50.7808 48.83 50.6638 48.479 50.4298 48.271C50.2218 48.037 49.8708 47.92 49.3768 47.92H32.7628C32.2688 47.92 31.9048 48.037 31.6708 48.271C31.4628 48.479 31.3588 48.83 31.3588 49.324V54.043C31.3588 54.537 31.4628 54.901 31.6708 55.135C31.9048 55.343 32.2688 55.447 32.7628 55.447H36.6238V68.551H32.7628C32.2688 68.551 31.9048 68.668 31.6708 68.902C31.4628 69.11 31.3588 69.461 31.3588 69.955V74.596C31.3588 75.09 31.4628 75.454 31.6708 75.688C31.9048 75.896 32.2688 76 32.7628 76ZM47.2708 72.49H34.8688V72.1H40.9138V51.82H34.8688V51.43H47.2708V51.82H41.3038V72.1H47.2708V72.49ZM64.3559 81.226C61.8339 81.226 59.7539 80.953 58.1159 80.407C56.5039 79.887 55.2429 79.185 54.3329 78.301C53.4229 77.417 52.7859 76.403 52.4219 75.259C52.0839 74.115 51.9149 72.932 51.9149 71.71V53.575C51.9149 53.237 51.9539 52.951 52.0319 52.717C52.1359 52.483 52.2789 52.288 52.4609 52.132L57.4919 47.881C57.6219 47.777 57.7909 47.699 57.9989 47.647C58.2329 47.569 58.4799 47.53 58.7399 47.53H64.8629C65.4869 47.53 65.9419 47.673 66.2279 47.959C66.5139 48.245 66.6569 48.7 66.6569 49.324V67.108C66.6569 67.342 66.6959 67.563 66.7739 67.771C66.8519 67.953 67.0209 68.096 67.2809 68.2V53.575C67.2809 53.237 67.3199 52.951 67.3979 52.717C67.4759 52.483 67.5929 52.301 67.7489 52.171L67.7879 52.132L72.8579 47.881C72.9879 47.777 73.1569 47.699 73.3649 47.647C73.5729 47.569 73.8199 47.53 74.1059 47.53H80.0339C80.6579 47.53 81.1129 47.673 81.3989 47.959C81.6849 48.245 81.8279 48.7 81.8279 49.324V68.629C81.8279 69.825 81.6589 70.93 81.3209 71.944C80.9829 72.958 80.3719 73.829 79.4879 74.557L74.4179 78.769C73.5079 79.549 72.2469 80.147 70.6349 80.563C69.0229 81.005 66.9299 81.226 64.3559 81.226ZM81.4379 68.629V49.324C81.4379 48.83 81.3209 48.479 81.0869 48.271C80.8789 48.037 80.5279 47.92 80.0339 47.92H74.1059C73.6119 47.92 73.2479 48.037 73.0139 48.271C72.8059 48.479 72.7019 48.83 72.7019 49.324V67.108C72.7019 67.628 72.5069 68.07 72.1169 68.434C71.7269 68.772 70.8429 68.941 69.4649 68.941C68.1129 68.941 67.2419 68.772 66.8519 68.434C66.4619 68.07 66.2669 67.628 66.2669 67.108V49.324C66.2669 48.83 66.1499 48.479 65.9159 48.271C65.7079 48.037 65.3569 47.92 64.8629 47.92H58.7399C58.2459 47.92 57.8819 48.037 57.6479 48.271C57.4399 48.479 57.3359 48.83 57.3359 49.324V68.629C57.3359 69.825 57.5049 70.917 57.8429 71.905C58.2069 72.867 58.8309 73.699 59.7149 74.401C60.6249 75.077 61.8599 75.61 63.4199 76C64.9799 76.39 66.9689 76.585 69.3869 76.585C71.8049 76.585 73.7939 76.39 75.3539 76C76.9139 75.61 78.1359 75.077 79.0199 74.401C79.9299 73.699 80.5539 72.867 80.8919 71.905C81.2559 70.917 81.4379 69.825 81.4379 68.629ZM61.6259 51.43H62.0159V67.693C62.0159 69.149 62.5229 70.332 63.5369 71.242C64.5769 72.126 66.5399 72.568 69.4259 72.568C72.3119 72.568 74.2749 72.126 75.3149 71.242C76.3549 70.332 76.8749 69.149 76.8749 67.693V51.43H77.2649V67.693C77.2649 69.253 76.7189 70.527 75.6269 71.515C74.5349 72.477 72.4679 72.958 69.4259 72.958C66.3839 72.958 64.3169 72.477 63.2249 71.515C62.1589 70.527 61.6259 69.253 61.6259 67.693V51.43ZM96.7923 80.641H90.4743C89.8503 80.641 89.3953 80.498 89.1093 80.212C88.8233 79.926 88.6803 79.471 88.6803 78.847V60.088H83.3373C82.7133 60.088 82.2583 59.945 81.9723 59.659C81.6863 59.373 81.5433 58.918 81.5433 58.294V53.575C81.5433 53.237 81.5823 52.951 81.6603 52.717C81.7643 52.483 81.9073 52.288 82.0893 52.132L87.1203 47.881C87.2503 47.777 87.4193 47.699 87.6273 47.647C87.8613 47.569 88.1083 47.53 88.3683 47.53H108.96C109.584 47.53 110.039 47.673 110.325 47.959C110.611 48.245 110.754 48.7 110.754 49.324V54.043C110.754 54.381 110.702 54.667 110.598 54.901C110.52 55.135 110.39 55.33 110.208 55.486L105.138 59.698C105.034 59.802 104.865 59.893 104.631 59.971C104.423 60.049 104.189 60.088 103.929 60.088H103.617V74.596C103.617 74.934 103.565 75.22 103.461 75.454C103.383 75.688 103.253 75.883 103.071 76.039L98.0013 80.251C97.8973 80.355 97.7283 80.446 97.4943 80.524C97.2863 80.602 97.0523 80.641 96.7923 80.641ZM101.823 76C102.317 76 102.668 75.896 102.876 75.688C103.11 75.454 103.227 75.09 103.227 74.596V55.447H108.96C109.454 55.447 109.805 55.343 110.013 55.135C110.247 54.901 110.364 54.537 110.364 54.043V49.324C110.364 48.83 110.247 48.479 110.013 48.271C109.805 48.037 109.454 47.92 108.96 47.92H88.3683C87.8743 47.92 87.5103 48.037 87.2763 48.271C87.0683 48.479 86.9643 48.83 86.9643 49.324V54.043C86.9643 54.537 87.0683 54.901 87.2763 55.135C87.5103 55.343 87.8743 55.447 88.3683 55.447H94.1013V74.596C94.1013 75.09 94.2053 75.454 94.4133 75.688C94.6473 75.896 95.0113 76 95.5053 76H101.823ZM98.4693 72.49V51.82H90.4743V51.43H106.854V51.82H98.8593V72.49H98.4693ZM130.561 80.641H112.465C111.841 80.641 111.386 80.498 111.1 80.212C110.814 79.926 110.671 79.471 110.671 78.847V53.575C110.671 53.237 110.71 52.951 110.788 52.717C110.892 52.483 111.035 52.288 111.217 52.132L116.248 47.881C116.378 47.777 116.547 47.699 116.755 47.647C116.989 47.569 117.236 47.53 117.496 47.53H135.592C136.216 47.53 136.671 47.673 136.957 47.959C137.243 48.245 137.386 48.7 137.386 49.324V53.887C137.386 54.225 137.334 54.511 137.23 54.745C137.152 54.979 137.022 55.174 136.84 55.33L133.486 58.099C133.746 58.229 133.928 58.424 134.032 58.684C134.162 58.944 134.227 59.282 134.227 59.698V63.871C134.227 64.209 134.175 64.495 134.071 64.729C133.993 64.963 133.863 65.158 133.681 65.314L130.21 68.239H135.592C136.216 68.239 136.671 68.382 136.957 68.668C137.243 68.954 137.386 69.409 137.386 70.033V74.596C137.386 74.934 137.334 75.22 137.23 75.454C137.152 75.688 137.022 75.883 136.84 76.039L131.77 80.251C131.666 80.355 131.497 80.446 131.263 80.524C131.055 80.602 130.821 80.641 130.561 80.641ZM135.592 76C136.086 76 136.437 75.896 136.645 75.688C136.879 75.454 136.996 75.09 136.996 74.596V70.033C136.996 69.539 136.879 69.188 136.645 68.98C136.437 68.746 136.086 68.629 135.592 68.629H124.828V65.275H132.433C132.927 65.275 133.278 65.171 133.486 64.963C133.72 64.729 133.837 64.365 133.837 63.871V59.698C133.837 59.204 133.72 58.853 133.486 58.645C133.278 58.411 132.927 58.294 132.433 58.294H124.828V55.291H135.592C136.086 55.291 136.437 55.187 136.645 54.979C136.879 54.745 136.996 54.381 136.996 53.887V49.324C136.996 48.83 136.879 48.479 136.645 48.271C136.437 48.037 136.086 47.92 135.592 47.92H117.496C117.002 47.92 116.638 48.037 116.404 48.271C116.196 48.479 116.092 48.83 116.092 49.324V74.596C116.092 75.09 116.196 75.454 116.404 75.688C116.638 75.896 117.002 76 117.496 76H135.592ZM133.486 72.1V72.49H120.343V51.43H133.486V51.82H120.733V61.609H130.327V61.999H120.733V72.1H133.486ZM156.648 51.82H148.146V63.091H156.648C158.26 63.091 159.339 62.701 159.885 61.921C160.431 61.141 160.704 60.036 160.704 58.606V55.876C160.704 54.68 160.366 53.705 159.69 52.951C159.04 52.197 158.026 51.82 156.648 51.82ZM152.358 54.94H155.283C155.959 54.94 156.414 55.122 156.648 55.486C156.882 55.824 156.999 56.253 156.999 56.773V58.099C156.999 58.619 156.882 59.061 156.648 59.425C156.414 59.763 155.959 59.932 155.283 59.932H152.358V54.94ZM148.146 72.49H147.756V51.43H156.648C158.156 51.43 159.274 51.859 160.002 52.717C160.73 53.549 161.094 54.602 161.094 55.876V58.567C161.094 59.763 160.938 60.751 160.626 61.531C160.314 62.285 159.69 62.805 158.754 63.091H159.183C160.769 63.091 161.952 63.455 162.732 64.183C163.512 64.885 163.902 65.912 163.902 67.264V72.49H163.512V67.264C163.512 65.99 163.161 65.041 162.459 64.417C161.757 63.767 160.665 63.442 159.183 63.442H148.146V72.49ZM150.954 76C151.448 76 151.799 75.896 152.007 75.688C152.241 75.454 152.358 75.09 152.358 74.596V66.952H157.818C158.364 66.952 158.741 67.095 158.949 67.381C159.183 67.641 159.3 68.057 159.3 68.629V74.596C159.3 75.09 159.404 75.454 159.612 75.688C159.846 75.896 160.21 76 160.704 76H166.749C167.243 76 167.594 75.896 167.802 75.688C168.036 75.454 168.153 75.09 168.153 74.596V66.328C168.153 64.69 167.711 63.377 166.827 62.389C165.969 61.401 164.838 60.829 163.434 60.673C164.24 60.335 164.799 59.789 165.111 59.035C165.449 58.255 165.618 57.319 165.618 56.227V54.433C165.618 52.509 165.059 50.949 163.941 49.753C162.849 48.531 160.847 47.92 157.935 47.92H144.948C144.454 47.92 144.09 48.037 143.856 48.271C143.648 48.479 143.544 48.83 143.544 49.324V74.596C143.544 75.09 143.648 75.454 143.856 75.688C144.09 75.896 144.454 76 144.948 76H150.954ZM152.202 76.039L147.132 80.251C147.028 80.355 146.859 80.446 146.625 80.524C146.417 80.602 146.183 80.641 145.923 80.641H139.917C139.293 80.641 138.838 80.498 138.552 80.212C138.266 79.926 138.123 79.471 138.123 78.847V53.575C138.123 53.237 138.162 52.951 138.24 52.717C138.344 52.483 138.487 52.288 138.669 52.132L143.7 47.881C143.83 47.777 143.999 47.699 144.207 47.647C144.441 47.569 144.688 47.53 144.948 47.53H157.935C161.029 47.53 163.148 48.18 164.292 49.48C165.436 50.754 166.008 52.405 166.008 54.433V56.227C166.008 57.189 165.891 58.034 165.657 58.762C165.423 59.464 165.046 60.036 164.526 60.478H164.487C165.709 60.816 166.684 61.492 167.412 62.506C168.166 63.52 168.543 64.794 168.543 66.328V74.596C168.543 74.934 168.491 75.22 168.387 75.454C168.309 75.688 168.179 75.883 167.997 76.039L162.927 80.251C162.823 80.355 162.654 80.446 162.42 80.524C162.212 80.602 161.978 80.641 161.718 80.641H155.673C155.049 80.641 154.594 80.498 154.308 80.212C154.022 79.926 153.879 79.471 153.879 78.847V72.88C153.879 72.464 153.801 72.152 153.645 71.944C153.489 71.71 153.203 71.593 152.787 71.593H152.748V74.596C152.748 74.934 152.696 75.22 152.592 75.454C152.514 75.688 152.384 75.883 152.202 76.039Z" fill="black"/>
</svg>
